<?xml version="1.0" standalone="no"?><svg xmlns="http://www.w3.org/2000/svg" viewBox="0 0 1440 320"><path fill="#000b76" fill-opacity="1" d="M0,96L24,90.7C48,85,96,75,144,112C192,149,240,235,288,229.3C336,224,384,128,432,117.3C480,107,528,181,576,181.3C624,181,672,107,720,69.3C768,32,816,32,864,69.3C912,107,960,181,1008,197.3C1056,213,1104,171,1152,133.3C1200,96,1248,64,1296,90.7C1344,117,1392,203,1416,245.3L1440,288L1440,0L1416,0C1392,0,1344,0,1296,0C1248,0,1200,0,1152,0C1104,0,1056,0,1008,0C960,0,912,0,864,0C816,0,768,0,720,0C672,0,624,0,576,0C528,0,480,0,432,0C384,0,336,0,288,0C240,0,192,0,144,0C96,0,48,0,24,0L0,0Z"></path></svg>